<svg id="Layer_1" data-name="Layer 1" xmlns="http://www.w3.org/2000/svg" viewBox="0 0 697.93 320.07"><defs><style>.cls-1{fill:#fafafa;}</style></defs><path class="cls-1" d="M217.3,240.8a58.56,58.56,0,0,0-9.19-15.48,46.43,46.43,0,0,0-11.43-9.65c-8.58-5.25-18.7-7.58-28.68-8-19.86-.77-39.75,6.32-56.33,16.88C94,235.84,79.45,251.39,68.25,269A175.92,175.92,0,0,0,45,326.57a170.66,170.66,0,0,0-1.62,63.94,121.14,121.14,0,0,0,9.18,30.42c4.18,9.12,10.47,17.34,18.9,22.91,15.36,10.15,34.54,6.82,50-1.08,16.51-8.43,30.26-22.13,41-37a171.94,171.94,0,0,0,14.73-25.15A283.67,283.67,0,0,0,191,347.23a244.59,244.59,0,0,0,9-33.77,174.8,174.8,0,0,0,3.38-35.27,124.06,124.06,0,0,0-1.57-17,9.46,9.46,0,0,0-2.57-4.41,9.84,9.84,0,0,0-5.75-2.75,10,10,0,0,0-10,4.77C176.15,271,174.33,286,174,299.91c-.35,13.4.9,26.79,2.36,40.1,1.31,11.94,2.39,23.93,5.37,35.6,3.21,12.53,8.31,24.51,16.41,34.66,8.32,10.43,21.09,17.33,34.5,17.8,13.18.46,25.28-5,35.15-13.4,9.22-7.87,16.25-18.41,22-29,5.59-10.38,10.09-21.33,14.42-32.29,5.26-13.31,10.46-26.61,14.41-40.39,4.5-15.7,7.86-32.23,7.58-48.63a108.14,108.14,0,0,0-1.15-13A9.33,9.33,0,0,0,322.4,247a9.91,9.91,0,0,0-5.74-2.75c-3.59-.48-8.37,1.18-10,4.77-11.29,25.35-6.73,55-2.58,81.44,1,6.69,2.19,13.37,3.21,20.07l-.36-2.66c2.74,22.67,4.72,45.59,10.29,67.8a172.72,172.72,0,0,0,5.56,18.06c1.76,4.71,5.77,7.86,11,7.16,4.51-.61,9.15-4.86,8.67-9.82-2.42-24.65-5.56-49.6-2.3-74.32l-.36,2.66a130,130,0,0,1,7.38-29.13c.22-.59.45-1.18.69-1.76l.23-.59q.61-1.49-.27.63A19.13,19.13,0,0,0,349.4,325c1.07-2.33,2.2-4.63,3.47-6.86q1.72-3,3.66-5.95c.62-.92,1.25-1.84,1.9-2.74l1-1.32c1-1.41-1.59,2,.08-.09a84.62,84.62,0,0,1,8.67-9.29q2-1.81,4-3.51c.66-.54,3.53-2.61.62-.52.9-.65,1.78-1.34,2.69-2a199.76,199.76,0,0,1,20.11-12.21c8.48-4.67,17-9.27,25.09-14.58,4.37-2.86,6.62-9,3.59-13.68-2.81-4.37-9-6.66-13.68-3.59-21.24,13.91-46.05,23-63.09,42.61-21,24.18-28.8,56.85-28.77,88.27,0,17.22,2,34.37,3.71,51.49l19.64-2.66c-6.16-16.54-9.31-34-11.68-51.45l.36,2.66c-1.64-12.2-2.63-24.5-4.52-36.66-1.52-9.71-3.21-19.4-4.53-29.14l.36,2.66c-2-14.93-3.41-30.23-1.41-45.23l-.36,2.66a76.56,76.56,0,0,1,1.71-8.76c.35-1.31.73-2.61,1.16-3.89q.35-1,.72-2c.15-.4.73-1.78,0-.09s-.1.24,0-.07l-18.28-2.39.08.53-.36-2.66a105.5,105.5,0,0,1-.4,27.5l.35-2.65C302,304,293.13,327.23,284,350.15c-.8,2-1.6,4-2.43,6-.2.5-.41,1-.62,1.5l-.31.75c-.45,1.06,1-2.31.52-1.25s-.93,2.17-1.4,3.26c-2,4.47-4,8.89-6.31,13.23a135.63,135.63,0,0,1-7.39,12.6c-.64,1-1.29,1.91-2,2.84-.33.47-.67.93-1,1.39l-.64.85c-.92,1.23,1.38-1.75.65-.84-1.44,1.79-2.91,3.56-4.49,5.25A62.79,62.79,0,0,1,253,401c-.7.58-2.79,2,.14-.07-.49.34-1,.7-1.45,1-1,.71-2.07,1.39-3.14,2s-2,1.14-3.11,1.65c-.84.4-3.17,1.21.25-.06-.61.23-1.21.48-1.83.7a38.87,38.87,0,0,1-7.3,1.77l2.66-.36a35.21,35.21,0,0,1-9.23.11l2.66.35a37.9,37.9,0,0,1-7.49-1.82c-.84-.3-3.16-1.51.1.1-.49-.24-1-.45-1.47-.69a37.63,37.63,0,0,1-3.34-1.88c-.51-.32-1-.66-1.5-1l-.65-.46c-1.14-.81,1.1.87,1.07.83a23.28,23.28,0,0,0-2.88-2.5c-.83-.79-1.62-1.61-2.39-2.46-.41-.46-.81-.92-1.2-1.39l-.65-.79c-1-1.17,1.36,1.83.69.89a76.65,76.65,0,0,1-7.65-13.37c-.62-1.38,1,2.51.17.39-.25-.61-.49-1.21-.72-1.82-.5-1.3-1-2.61-1.4-3.92-.84-2.5-1.58-5-2.24-7.58a147.67,147.67,0,0,1-3.33-17.21l.36,2.66c-1.07-8-1.84-16-2.63-24a275.75,275.75,0,0,1-1.58-28.87,135.05,135.05,0,0,1,1-16.58l-.35,2.65a77.57,77.57,0,0,1,2.53-12.13c.26-.86.54-1.72.84-2.57s1.95-4.26.29-.89c.81-1.65,1.58-3.3,2.54-4.88l-18.28-2.39c.13.78.24,1.56.35,2.34l-.36-2.66c1.51,11.56,1,23.3-.57,34.82l.35-2.65a229.38,229.38,0,0,1-9.32,39.8q-3.15,9.7-7,19.13c-.28.7-1.45,3.42-.14.39-.29.66-.57,1.33-.86,2-.71,1.64-1.44,3.28-2.18,4.9q-2,4.28-4.08,8.46c-2.67,5.27-5.53,10.44-8.65,15.44-1.38,2.22-2.82,4.39-4.34,6.52-.68.95-1.38,1.89-2.09,2.83-1.22,1.64,1.62-2.05.16-.21-.43.55-.87,1.1-1.31,1.64A124.42,124.42,0,0,1,132,410.56q-2.73,2.61-5.63,5c-1,.8-1.94,1.57-2.91,2.35s2-1.49,1-.81c-.28.2-.55.41-.82.62-.55.41-1.1.81-1.66,1.2a80.68,80.68,0,0,1-13.93,8.1l-.69.3c-1.41.63,2.52-1,1-.43-.58.23-1.15.46-1.73.67-1.14.43-2.29.81-3.45,1.16A47.44,47.44,0,0,1,96,430.31l2.66-.36a37,37,0,0,1-9.34.05l2.66.36a31.06,31.06,0,0,1-5.29-1.17c-.42-.13-.84-.27-1.25-.42s-2.17-.88-.2,0,.23.08-.18-.12-.91-.45-1.35-.69c-.81-.45-1.6-.92-2.36-1.44-.39-.26-.77-.54-1.16-.81-1.13-.76,2.32,1.88.47.35a37.74,37.74,0,0,1-4.46-4.39c-.35-.41-.69-.83-1-1.24-1-1.18,1.66,2.22.31.38-.72-1-1.4-2-2-3.06a61,61,0,0,1-3.66-6.87c-.34-.73-1.17-2.95,0,.06-.25-.66-.53-1.3-.79-2-.49-1.28-1-2.57-1.39-3.87q-1.26-3.74-2.28-7.54a136.39,136.39,0,0,1-3.39-17l.35,2.66a157.34,157.34,0,0,1,.18-41.53l-.36,2.66a173,173,0,0,1,8-33.52q1.44-4.12,3.09-8.18c.31-.75,1.26-2.92-.07.15.25-.6.5-1.19.76-1.79.59-1.33,1.18-2.65,1.8-4a162.23,162.23,0,0,1,8.18-15.28q2.18-3.57,4.53-7c.76-1.11,1.54-2.21,2.33-3.3l1.12-1.53.57-.76.57-.75-1,1.27a101.26,101.26,0,0,1,11-12.52q2.86-2.89,5.91-5.6c1-.92,2.09-1.82,3.16-2.71l1.44-1.16c.67-.54,2.94-2.2.15-.15a132.85,132.85,0,0,1,13.42-8.85c2.57-1.44,5.16-2.83,7.83-4.06.68-.32,1.35-.61,2-.91,1.38-.62-1.19.5-1.16.48a6.73,6.73,0,0,1,1.24-.51c1.39-.55,2.79-1.08,4.2-1.57a89.68,89.68,0,0,1,17.33-4.16l-2.66.36a69,69,0,0,1,18-.09l-2.66-.35a50.44,50.44,0,0,1,10.15,2.46c.45.16.88.33,1.32.5,1.49.56-2.43-1.09-.9-.39.73.33,1.46.67,2.18,1a39.66,39.66,0,0,1,4.47,2.67c.34.23.66.47,1,.7,1.36,1-2-1.58-.75-.57.68.56,1.36,1.13,2,1.73a38.65,38.65,0,0,1,3.56,3.79c1.34,1.64-.47-.71-.52-.69a11.66,11.66,0,0,1,.88,1.23c.54.78,1.06,1.58,1.55,2.4s.89,1.57,1.31,2.38,2,4.42.56,1c1.06,2.51,2.14,4.53,4.59,6a10,10,0,0,0,13.69-3.58c1.16-2.21,2-5.3,1-7.71Z" transform="translate(-41.06 -133.94)"/><path class="cls-1" d="M467.79,144c-2.1,19.8-3.58,39.68-4.15,59.59q-.42,15-.15,30c.18,9.48.79,18.94,1.16,28.41.55,14.22.9,28.44,2.21,42.62,1.42,15.4,3.67,31,8.6,45.67s12.61,29.37,24.19,40.16c6.62,6.18,14.75,11.08,23.67,13a54.38,54.38,0,0,0,25.61-.79,79.71,79.71,0,0,0,22.37-10.24,91.85,91.85,0,0,0,18.12-14.8,139.64,139.64,0,0,0,23-35.42,131.31,131.31,0,0,0,8.12-22,74.08,74.08,0,0,0,2.65-21.56,49.5,49.5,0,0,0-1.62-10.9A38.07,38.07,0,0,0,617,277.14a26.29,26.29,0,0,0-8.21-8.22,22.83,22.83,0,0,0-10.47-3.06,25.26,25.26,0,0,0-8.88,1.16,44.17,44.17,0,0,0-8.92,3.89,81,81,0,0,0-15.11,11.54,118.58,118.58,0,0,0-21.58,27,122.73,122.73,0,0,0-15.15,42.7c-2.36,15.62-2.12,31.85,3.08,46.94a75,75,0,0,0,10.83,20.87,63.93,63.93,0,0,0,7.13,8.28,76.39,76.39,0,0,0,7.08,5.73c8.74,6.39,19.15,10.66,29.49,13.7a166.12,166.12,0,0,0,36.8,6.05A198.39,198.39,0,0,0,662,452a151.35,151.35,0,0,0,34.23-8.6c11.27-4.39,21.86-10,31-18.09a65.91,65.91,0,0,0,10.48-12,10,10,0,0,0-11.29-14.69,11.12,11.12,0,0,0-6,4.59c-.52.75-1.06,1.49-1.61,2.21l1.56-2A60.27,60.27,0,0,1,709.56,414l2-1.57a90.78,90.78,0,0,1-20,11.43l2.39-1a148.64,148.64,0,0,1-37.61,9.88l2.66-.36a185.79,185.79,0,0,1-38,1.19c-3.52-.25-7-.61-10.54-1.07l2.66.35a130.25,130.25,0,0,1-33.24-8.64l2.39,1a75.37,75.37,0,0,1-16.54-9.42l2,1.56a51.47,51.47,0,0,1-9.2-9.22l1.56,2a66.74,66.74,0,0,1-8.43-14.54l1,2.39a76.14,76.14,0,0,1-5.09-19l.36,2.66a96.23,96.23,0,0,1,.13-25.09l-.35,2.66a115.78,115.78,0,0,1,8-29.28l-1,2.39a108.13,108.13,0,0,1,13.74-23.87l-1.56,2a108.64,108.64,0,0,1,18.9-19.25l-2,1.57a49,49,0,0,1,10.7-6.51l-2.39,1a23.45,23.45,0,0,1,5.69-1.63l-2.66.35a15.26,15.26,0,0,1,4.05,0l-2.66-.36a12.51,12.51,0,0,1,3,.8l-2.39-1a13.25,13.25,0,0,1,2.75,1.6l-2-1.56a16.18,16.18,0,0,1,2.66,2.7l-1.56-2a25.28,25.28,0,0,1,3,5.34l-1-2.39a35.19,35.19,0,0,1,2.31,8.66l-.35-2.66a51.91,51.91,0,0,1-.18,13.18l.36-2.65a98.75,98.75,0,0,1-7.12,24.71l1-2.39a143.35,143.35,0,0,1-18.29,31.58l1.56-2a79.29,79.29,0,0,1-14.28,14.37l2-1.56a87.14,87.14,0,0,1-18.89,11.3l2.39-1a56.52,56.52,0,0,1-14.25,4l2.66-.36a42.76,42.76,0,0,1-10.9,0l2.66.36A38.82,38.82,0,0,1,522,382l2.39,1a42.79,42.79,0,0,1-9.23-5.43l2,1.56A62.42,62.42,0,0,1,506.37,368l1.57,2a88.75,88.75,0,0,1-11.07-19.25l1,2.39c-5.31-12.6-8.23-26.06-10.06-39.56l.36,2.66c-2.43-18.14-2.83-36.44-3.55-54.71-.49-12.4-1.19-24.77-1.25-37.19q-.08-18.93,1-37.83c.76-14.22,2-28.42,3.45-42.58.25-2.39-1.3-5.44-2.93-7.07a10,10,0,0,0-14.14,0,11.48,11.48,0,0,0-2.93,7.07Z" transform="translate(-41.06 -133.94)"/><path class="cls-1" d="M415.2,221.29c26.38-5.18,52.18-12.82,78.2-19.5,13-3.33,26-6.21,39.12-8.79,13.39-2.62,26.69-5.65,40-8.83,14.75-3.55,29.45-7.28,44.19-10.87,5.09-1.24,8.62-7.27,7-12.3a10.21,10.21,0,0,0-12.3-7c-26.41,6.42-52.71,13.33-79.35,18.74-6.63,1.35-13.29,2.54-19.9,4s-13,3-19.41,4.59c-13,3.26-25.86,6.82-38.78,10.24-14.59,3.86-29.22,7.53-44,10.44a10.12,10.12,0,0,0-6,4.59,10.22,10.22,0,0,0-1,7.71,10.09,10.09,0,0,0,4.59,6,11.12,11.12,0,0,0,7.71,1Z" transform="translate(-41.06 -133.94)"/></svg>