<svg id="celeste" xmlns="http://www.w3.org/2000/svg" viewBox="0 0 1200 701"><defs><style>.cls-1{fill:#bed7f0;}.cls-2{fill:#fafbfb;}.cls-3{fill:none;stroke:#f9d977;stroke-linecap:round;stroke-linejoin:round;stroke-width:26px;}.cls-4{fill:#eeacac;}</style></defs><rect class="cls-1" y="1" width="1200" height="700"/><path class="cls-2" d="M420.25,531.23a2.37,2.37,0,1,1-2.37-2.37A2.37,2.37,0,0,1,420.25,531.23Z" transform="translate(0 1)"/><path class="cls-2" d="M410.25,537a2.38,2.38,0,1,1-2.38-2.38A2.38,2.38,0,0,1,410.25,537Z" transform="translate(0 1)"/><circle class="cls-2" cx="398.28" cy="543.54" r="2.37" transform="translate(-202.28 850.14) rotate(-80.74)"/><circle class="cls-2" cx="388.97" cy="537.14" r="2.36" transform="translate(-255.82 693.22) rotate(-67.61)"/><circle class="cls-2" cx="397.86" cy="529.84" r="2.37" transform="translate(-189.11 838.21) rotate(-80.74)"/><path class="cls-2" d="M410.33,523.13A2.33,2.33,0,1,1,408,520.8,2.33,2.33,0,0,1,410.33,523.13Z" transform="translate(0 1)"/><path class="cls-2" d="M422.24,518.54a2.32,2.32,0,1,1-2.31-2.31A2.32,2.32,0,0,1,422.24,518.54Z" transform="translate(0 1)"/><path class="cls-2" d="M431.18,527a2.37,2.37,0,1,1-2.37-2.37A2.37,2.37,0,0,1,431.18,527Z" transform="translate(0 1)"/><path class="cls-2" d="M430.87,538.84a2.37,2.37,0,1,1-2.37-2.37A2.38,2.38,0,0,1,430.87,538.84Z" transform="translate(0 1)"/><path class="cls-2" d="M430.79,550.68a2.37,2.37,0,1,1-2.37-2.37A2.37,2.37,0,0,1,430.79,550.68Z" transform="translate(0 1)"/><path class="cls-2" d="M420.2,544.2a2.37,2.37,0,1,1-2.37-2.38A2.38,2.38,0,0,1,420.2,544.2Z" transform="translate(0 1)"/><path class="cls-2" d="M410.08,550.42a2.37,2.37,0,1,1-2.37-2.38A2.38,2.38,0,0,1,410.08,550.42Z" transform="translate(0 1)"/><path class="cls-2" d="M419.48,556.67a2.37,2.37,0,1,1-2.37-2.38A2.38,2.38,0,0,1,419.48,556.67Z" transform="translate(0 1)"/><path class="cls-2" d="M409.39,563.78a2.37,2.37,0,1,1-2.37-2.37A2.37,2.37,0,0,1,409.39,563.78Z" transform="translate(0 1)"/><circle class="cls-2" cx="397.09" cy="569.15" r="2.37"/><circle class="cls-2" cx="397.75" cy="557.25" r="2.37"/><circle class="cls-2" cx="388.1" cy="549.66" r="2.37" transform="translate(-267.96 700.14) rotate(-67.61)"/><circle class="cls-2" cx="379.14" cy="544.43" r="2.22"/><circle class="cls-2" cx="375.94" cy="554.87" r="2.37"/><circle class="cls-2" cx="376.48" cy="567.41" r="2.37"/><path class="cls-2" d="M389.09,561.09a2.37,2.37,0,1,1-2.37-2.37A2.37,2.37,0,0,1,389.09,561.09Z" transform="translate(0 1)"/><circle class="cls-2" cx="386.08" cy="573.09" r="2.37" transform="translate(-241.67 862.92) rotate(-80.74)"/><path class="cls-2" d="M378.68,579.28a2.38,2.38,0,1,1-2.37-2.37A2.37,2.37,0,0,1,378.68,579.28Z" transform="translate(0 1)"/><path class="cls-2" d="M369.25,572.17a2.37,2.37,0,1,1-2.37-2.38A2.38,2.38,0,0,1,369.25,572.17Z" transform="translate(0 1)"/><path class="cls-2" d="M369.15,559.81a2.37,2.37,0,1,1-2.37-2.37A2.37,2.37,0,0,1,369.15,559.81Z" transform="translate(0 1)"/><path class="cls-2" d="M359.47,565a2.37,2.37,0,1,1-2.37-2.37A2.37,2.37,0,0,1,359.47,565Z" transform="translate(0 1)"/><path class="cls-2" d="M349.13,568.45a2.37,2.37,0,1,1-2.37-2.37A2.38,2.38,0,0,1,349.13,568.45Z" transform="translate(0 1)"/><path class="cls-2" d="M359.09,576.72a2.37,2.37,0,1,1-2.37-2.37A2.37,2.37,0,0,1,359.09,576.72Z" transform="translate(0 1)"/><path class="cls-2" d="M349,580.06a2.37,2.37,0,1,1-2.37-2.37A2.37,2.37,0,0,1,349,580.06Z" transform="translate(0 1)"/><circle class="cls-2" cx="340" cy="588.2" r="2.37" transform="translate(-333.38 679.46) rotate(-67.6)"/><path class="cls-2" d="M334,596.87a2.37,2.37,0,1,1-2.37-2.37A2.37,2.37,0,0,1,334,596.87Z" transform="translate(0 1)"/><circle class="cls-2" cx="320.1" cy="593.27" r="2.37"/><path class="cls-2" d="M322.61,580.91a2.37,2.37,0,1,1-2.37-2.37A2.37,2.37,0,0,1,322.61,580.91Z" transform="translate(0 1)"/><path class="cls-2" d="M331.93,585a2.38,2.38,0,1,1-2.38-2.38A2.38,2.38,0,0,1,331.93,585Z" transform="translate(0 1)"/><path class="cls-2" d="M338.65,576.12a2.37,2.37,0,1,1-2.37-2.37A2.37,2.37,0,0,1,338.65,576.12Z" transform="translate(0 1)"/><path class="cls-2" d="M328.05,570.88a2.37,2.37,0,1,1-2.37-2.37A2.38,2.38,0,0,1,328.05,570.88Z" transform="translate(0 1)"/><path class="cls-2" d="M315.59,573.09a2.38,2.38,0,1,1-2.38-2.38A2.38,2.38,0,0,1,315.59,573.09Z" transform="translate(0 1)"/><path class="cls-2" d="M307.88,565.13a2.37,2.37,0,1,1-2.37-2.37A2.37,2.37,0,0,1,307.88,565.13Z" transform="translate(0 1)"/><path class="cls-2" d="M300.55,557a2.37,2.37,0,1,1-2.37-2.37A2.37,2.37,0,0,1,300.55,557Z" transform="translate(0 1)"/><path class="cls-2" d="M319.33,562a2.37,2.37,0,1,1-2.37-2.37A2.37,2.37,0,0,1,319.33,562Z" transform="translate(0 1)"/><circle class="cls-2" cx="336.48" cy="565.72" r="2.36"/><path class="cls-2" d="M329.77,558.73a2.36,2.36,0,1,1-2.36-2.36A2.36,2.36,0,0,1,329.77,558.73Z" transform="translate(0 1)"/><circle class="cls-2" cx="320.36" cy="550.47" r="2.25"/><circle class="cls-2" cx="309.32" cy="554.15" r="2.37"/><path class="cls-2" d="M304,544.4a2.38,2.38,0,1,1-2.38-2.37A2.38,2.38,0,0,1,304,544.4Z" transform="translate(0 1)"/><path class="cls-2" d="M314.92,540.77a2.34,2.34,0,1,1-2.34-2.34A2.34,2.34,0,0,1,314.92,540.77Z" transform="translate(0 1)"/><circle class="cls-2" cx="303.92" cy="532.75" r="2.3"/><path class="cls-2" d="M296.06,535.57a2.37,2.37,0,1,1-2.37-2.38A2.37,2.37,0,0,1,296.06,535.57Z" transform="translate(0 1)"/><circle class="cls-2" cx="284.6" cy="540.84" r="2.37" transform="translate(-295 735.67) rotate(-80.74)"/><path class="cls-2" d="M293.66,548.77a2.38,2.38,0,1,1-2.38-2.37A2.38,2.38,0,0,1,293.66,548.77Z" transform="translate(0 1)"/><circle class="cls-2" cx="286.4" cy="560.86" r="2.37"/><path class="cls-2" d="M285,570.55a2.38,2.38,0,1,1-2.38-2.37A2.39,2.39,0,0,1,285,570.55Z" transform="translate(0 1)"/><path class="cls-2" d="M296.51,568.65a2.37,2.37,0,1,1-2.37-2.37A2.37,2.37,0,0,1,296.51,568.65Z" transform="translate(0 1)"/><path class="cls-2" d="M304.43,577.06a2.37,2.37,0,1,1-2.37-2.37A2.37,2.37,0,0,1,304.43,577.06Z" transform="translate(0 1)"/><path class="cls-2" d="M293,580.34A2.37,2.37,0,1,1,290.6,578,2.37,2.37,0,0,1,293,580.34Z" transform="translate(0 1)"/><circle class="cls-2" cx="299.28" cy="588.8" r="2.37" transform="translate(-330 790.44) rotate(-80.74)"/><circle class="cls-2" cx="310.14" cy="585.38" r="2.37" transform="translate(-317.52 798.29) rotate(-80.74)"/><circle class="cls-2" cx="308.37" cy="598.05" r="2.37"/><path class="cls-2" d="M321.38,602.6a2.37,2.37,0,1,1-2.37-2.37A2.37,2.37,0,0,1,321.38,602.6Z" transform="translate(0 1)"/><path class="cls-2" d="M331.3,607.69a2.36,2.36,0,1,1-2.36-2.35A2.35,2.35,0,0,1,331.3,607.69Z" transform="translate(0 1)"/><path class="cls-2" d="M342.16,607a2.37,2.37,0,1,1-2.37-2.37A2.37,2.37,0,0,1,342.16,607Z" transform="translate(0 1)"/><path class="cls-2" d="M353.6,608.25a2.37,2.37,0,1,1-2.37-2.37A2.38,2.38,0,0,1,353.6,608.25Z" transform="translate(0 1)"/><path class="cls-2" d="M366.08,606.6a2.37,2.37,0,1,1-2.37-2.36A2.37,2.37,0,0,1,366.08,606.6Z" transform="translate(0 1)"/><path class="cls-2" d="M358.14,598.73a2.37,2.37,0,1,1-2.37-2.37A2.37,2.37,0,0,1,358.14,598.73Z" transform="translate(0 1)"/><path class="cls-2" d="M347.14,597.33a2.37,2.37,0,1,1-2.37-2.37A2.37,2.37,0,0,1,347.14,597.33Z" transform="translate(0 1)"/><path class="cls-2" d="M356.51,588.44a2.37,2.37,0,1,1-2.37-2.38A2.38,2.38,0,0,1,356.51,588.44Z" transform="translate(0 1)"/><path class="cls-2" d="M368.09,584.39a2.37,2.37,0,1,1-2.37-2.37A2.37,2.37,0,0,1,368.09,584.39Z" transform="translate(0 1)"/><circle class="cls-2" cx="366.14" cy="596.53" r="2.37"/><circle class="cls-2" cx="376.5" cy="592.45" r="2.37"/><circle class="cls-2" cx="375.76" cy="604.52" r="2.29"/><path class="cls-2" d="M389.28,597.11a2.37,2.37,0,1,1-2.37-2.36A2.37,2.37,0,0,1,389.28,597.11Z" transform="translate(0 1)"/><path class="cls-2" d="M389,585.53a2.37,2.37,0,1,1-2.37-2.37A2.37,2.37,0,0,1,389,585.53Z" transform="translate(0 1)"/><path class="cls-2" d="M400.53,589.45a2.36,2.36,0,1,1-2.36-2.36A2.36,2.36,0,0,1,400.53,589.45Z" transform="translate(0 1)"/><path class="cls-2" d="M398.3,578.93a2.37,2.37,0,1,1-2.37-2.37A2.37,2.37,0,0,1,398.3,578.93Z" transform="translate(0 1)"/><path class="cls-2" d="M409.24,577.92a2.37,2.37,0,1,1-2.37-2.37A2.37,2.37,0,0,1,409.24,577.92Z" transform="translate(0 1)"/><path class="cls-2" d="M418.49,569.19a2.37,2.37,0,1,1-2.37-2.37A2.37,2.37,0,0,1,418.49,569.19Z" transform="translate(0 1)"/><circle class="cls-2" cx="427.04" cy="562.54" r="2.37"/><path class="cls-2" d="M441.91,557.78a2.38,2.38,0,1,1-2.37-2.37A2.38,2.38,0,0,1,441.91,557.78Z" transform="translate(0 1)"/><path class="cls-2" d="M441.93,546.34a2.37,2.37,0,1,1-2.37-2.37A2.37,2.37,0,0,1,441.93,546.34Z" transform="translate(0 1)"/><path class="cls-2" d="M442,535.08a2.37,2.37,0,1,1-2.37-2.37A2.37,2.37,0,0,1,442,535.08Z" transform="translate(0 1)"/><circle class="cls-2" cx="439.82" cy="525.25" r="2.37"/><path class="cls-2" d="M435.25,515.48a2.16,2.16,0,1,1-2.16-2.16A2.15,2.15,0,0,1,435.25,515.48Z" transform="translate(0 1)"/><path class="cls-2" d="M450.17,516.9a2.33,2.33,0,1,1-2.33-2.32A2.33,2.33,0,0,1,450.17,516.9Z" transform="translate(0 1)"/><path class="cls-2" d="M453.12,528.82a2.37,2.37,0,1,1-2.37-2.37A2.37,2.37,0,0,1,453.12,528.82Z" transform="translate(0 1)"/><circle class="cls-2" cx="460.04" cy="522.02" r="2.37"/><path class="cls-2" d="M474,525.73a2.37,2.37,0,1,1-2.37-2.37A2.37,2.37,0,0,1,474,525.73Z" transform="translate(0 1)"/><path class="cls-2" d="M484.4,532.38a2.33,2.33,0,1,1-2.33-2.33A2.33,2.33,0,0,1,484.4,532.38Z" transform="translate(0 1)"/><path class="cls-2" d="M474.74,539.37a2.37,2.37,0,1,1-2.37-2.37A2.37,2.37,0,0,1,474.74,539.37Z" transform="translate(0 1)"/><path class="cls-2" d="M464.17,533.4A2.37,2.37,0,1,1,461.8,531,2.37,2.37,0,0,1,464.17,533.4Z" transform="translate(0 1)"/><path class="cls-2" d="M464.32,546a2.37,2.37,0,1,1-2.37-2.37A2.37,2.37,0,0,1,464.32,546Z" transform="translate(0 1)"/><circle class="cls-2" cx="450.92" cy="541.6" r="2.37"/><path class="cls-2" d="M453.28,551.9a2.37,2.37,0,1,1-2.37-2.37A2.37,2.37,0,0,1,453.28,551.9Z" transform="translate(0 1)"/><path class="cls-2" d="M454.43,562.39a2.37,2.37,0,1,1-2.37-2.37A2.37,2.37,0,0,1,454.43,562.39Z" transform="translate(0 1)"/><path class="cls-2" d="M465.09,557.94a2.38,2.38,0,1,1-2.38-2.38A2.38,2.38,0,0,1,465.09,557.94Z" transform="translate(0 1)"/><path class="cls-2" d="M475.53,552.11a2.37,2.37,0,1,1-2.37-2.37A2.38,2.38,0,0,1,475.53,552.11Z" transform="translate(0 1)"/><path class="cls-2" d="M475.15,565.44a2.37,2.37,0,1,1-2.37-2.37A2.38,2.38,0,0,1,475.15,565.44Z" transform="translate(0 1)"/><path class="cls-2" d="M464.49,570.35a2.37,2.37,0,1,1-2.37-2.37A2.37,2.37,0,0,1,464.49,570.35Z" transform="translate(0 1)"/><path class="cls-2" d="M472.07,579.92a2.37,2.37,0,1,1-2.37-2.37A2.37,2.37,0,0,1,472.07,579.92Z" transform="translate(0 1)"/><path class="cls-2" d="M484,572.41a2.38,2.38,0,1,1-2.37-2.37A2.37,2.37,0,0,1,484,572.41Z" transform="translate(0 1)"/><path class="cls-2" d="M482.16,585.61a2.38,2.38,0,1,1-2.38-2.37A2.38,2.38,0,0,1,482.16,585.61Z" transform="translate(0 1)"/><circle class="cls-2" cx="484.42" cy="596.88" r="2.31"/><circle class="cls-2" cx="492.13" cy="578.26" r="2.37"/><circle class="cls-2" cx="503.42" cy="571.17" r="2.37"/><path class="cls-2" d="M506.87,582.14a2.37,2.37,0,1,1-2.37-2.37A2.37,2.37,0,0,1,506.87,582.14Z" transform="translate(0 1)"/><circle class="cls-2" cx="493.57" cy="588.82" r="2.37" transform="translate(-166.99 982.21) rotate(-80.74)"/><circle class="cls-2" cx="496.32" cy="602.57" r="2.37"/><circle class="cls-2" cx="505.83" cy="594.99" r="2.37"/><circle class="cls-2" cx="508.64" cy="607.79" r="2.36"/><path class="cls-2" d="M519.61,598.71a2.37,2.37,0,1,1-2.37-2.37A2.37,2.37,0,0,1,519.61,598.71Z" transform="translate(0 1)"/><circle class="cls-2" cx="523.5" cy="607.85" r="2.37" transform="translate(-160.65 1027.74) rotate(-80.74)"/><path class="cls-2" d="M538.68,607.4a2.38,2.38,0,1,1-2.37-2.37A2.38,2.38,0,0,1,538.68,607.4Z" transform="translate(0 1)"/><path class="cls-2" d="M552,603.68a2.37,2.37,0,1,1-2.37-2.37A2.37,2.37,0,0,1,552,603.68Z" transform="translate(0 1)"/><path class="cls-2" d="M563.63,597.59a2.37,2.37,0,1,1-2.37-2.38A2.37,2.37,0,0,1,563.63,597.59Z" transform="translate(0 1)"/><path class="cls-2" d="M574.86,591.27a2.36,2.36,0,1,1-2.36-2.36A2.36,2.36,0,0,1,574.86,591.27Z" transform="translate(0 1)"/><path class="cls-2" d="M582,581.74a2.37,2.37,0,1,1-2.37-2.37A2.37,2.37,0,0,1,582,581.74Z" transform="translate(0 1)"/><path class="cls-2" d="M593.51,575.46a2.16,2.16,0,1,1-2.15-2.16A2.16,2.16,0,0,1,593.51,575.46Z" transform="translate(0 1)"/><path class="cls-2" d="M582.93,567.18a2.38,2.38,0,1,1-2.37-2.37A2.38,2.38,0,0,1,582.93,567.18Z" transform="translate(0 1)"/><path class="cls-2" d="M571.88,572.08a2.37,2.37,0,1,1-2.37-2.37A2.37,2.37,0,0,1,571.88,572.08Z" transform="translate(0 1)"/><path class="cls-2" d="M564.81,582.16a2.37,2.37,0,1,1-2.37-2.37A2.37,2.37,0,0,1,564.81,582.16Z" transform="translate(0 1)"/><circle class="cls-2" cx="551.47" cy="588.95" r="2.37" transform="translate(-118.54 1039.47) rotate(-80.74)"/><path class="cls-2" d="M543,595.08a2.37,2.37,0,1,1-2.37-2.37A2.38,2.38,0,0,1,543,595.08Z" transform="translate(0 1)"/><path class="cls-2" d="M531.29,594.26a2.38,2.38,0,1,1-2.38-2.37A2.38,2.38,0,0,1,531.29,594.26Z" transform="translate(0 1)"/><path class="cls-2" d="M519.54,587.09a2.38,2.38,0,1,1-2.38-2.38A2.38,2.38,0,0,1,519.54,587.09Z" transform="translate(0 1)"/><path class="cls-2" d="M530.38,580.4A2.37,2.37,0,1,1,528,578,2.37,2.37,0,0,1,530.38,580.4Z" transform="translate(0 1)"/><path class="cls-2" d="M541.88,582.35a2.37,2.37,0,1,1-2.37-2.37A2.37,2.37,0,0,1,541.88,582.35Z" transform="translate(0 1)"/><path class="cls-2" d="M552.35,575a2.37,2.37,0,1,1-2.37-2.37A2.37,2.37,0,0,1,552.35,575Z" transform="translate(0 1)"/><path class="cls-2" d="M561,565.92a2.38,2.38,0,1,1-2.38-2.37A2.38,2.38,0,0,1,561,565.92Z" transform="translate(0 1)"/><path class="cls-2" d="M571.18,557a2.37,2.37,0,1,1-2.37-2.37A2.37,2.37,0,0,1,571.18,557Z" transform="translate(0 1)"/><path class="cls-2" d="M583.82,554.24a2.37,2.37,0,1,1-2.37-2.37A2.37,2.37,0,0,1,583.82,554.24Z" transform="translate(0 1)"/><path class="cls-2" d="M595,561.23a2.35,2.35,0,1,1-2.35-2.34A2.35,2.35,0,0,1,595,561.23Z" transform="translate(0 1)"/><path class="cls-2" d="M592.64,545.75a1,1,0,1,1-2,0,1,1,0,0,1,2,0Z" transform="translate(0 1)"/><path class="cls-2" d="M578.94,542.66a2.37,2.37,0,1,1-2.37-2.37A2.37,2.37,0,0,1,578.94,542.66Z" transform="translate(0 1)"/><path class="cls-2" d="M566.3,543.62a2.37,2.37,0,1,1-2.37-2.37A2.37,2.37,0,0,1,566.3,543.62Z" transform="translate(0 1)"/><path class="cls-2" d="M557.19,552.17a2.38,2.38,0,1,1-2.38-2.37A2.38,2.38,0,0,1,557.19,552.17Z" transform="translate(0 1)"/><path class="cls-2" d="M548.51,561.08a2.37,2.37,0,1,1-2.37-2.37A2.37,2.37,0,0,1,548.51,561.08Z" transform="translate(0 1)"/><path class="cls-2" d="M539.45,568.24a2.37,2.37,0,1,1-2.37-2.37A2.37,2.37,0,0,1,539.45,568.24Z" transform="translate(0 1)"/><path class="cls-2" d="M528,567.9a2.37,2.37,0,1,1-2.37-2.37A2.37,2.37,0,0,1,528,567.9Z" transform="translate(0 1)"/><path class="cls-2" d="M517.86,575.53a2.37,2.37,0,1,1-2.37-2.37A2.37,2.37,0,0,1,517.86,575.53Z" transform="translate(0 1)"/><circle class="cls-2" cx="514.06" cy="564.7" r="2.37"/><path class="cls-2" d="M506.56,557a2.37,2.37,0,1,1-2.37-2.37A2.37,2.37,0,0,1,506.56,557Z" transform="translate(0 1)"/><circle class="cls-2" cx="493.1" cy="565.15" r="2.37"/><circle class="cls-2" cx="483.65" cy="559.33" r="2.37"/><path class="cls-2" d="M486.07,545.3a2.38,2.38,0,1,1-2.37-2.37A2.37,2.37,0,0,1,486.07,545.3Z" transform="translate(0 1)"/><path class="cls-2" d="M497.8,550.12a2.37,2.37,0,1,1-2.37-2.37A2.37,2.37,0,0,1,497.8,550.12Z" transform="translate(0 1)"/><path class="cls-2" d="M495.07,538.15a1.23,1.23,0,1,1-1.23-1.23A1.23,1.23,0,0,1,495.07,538.15Z" transform="translate(0 1)"/><path class="cls-2" d="M295,523.53a2.26,2.26,0,1,1-2.26-2.25A2.26,2.26,0,0,1,295,523.53Z" transform="translate(0 1)"/><path class="cls-2" d="M285.25,529.69a2.37,2.37,0,1,1-2.37-2.38A2.38,2.38,0,0,1,285.25,529.69Z" transform="translate(0 1)"/><path class="cls-2" d="M281.87,519a2.35,2.35,0,1,1-2.35-2.35A2.35,2.35,0,0,1,281.87,519Z" transform="translate(0 1)"/><path class="cls-2" d="M268.94,516.52a2.34,2.34,0,1,1-2.34-2.33A2.34,2.34,0,0,1,268.94,516.52Z" transform="translate(0 1)"/><path class="cls-2" d="M255,515.45a2.15,2.15,0,1,1-2.15-2.15A2.15,2.15,0,0,1,255,515.45Z" transform="translate(0 1)"/><circle class="cls-2" cx="238.44" cy="519.35" r="2.24"/><path class="cls-2" d="M249.66,525.3a2.37,2.37,0,1,1-2.37-2.37A2.38,2.38,0,0,1,249.66,525.3Z" transform="translate(0 1)"/><circle class="cls-2" cx="259.28" cy="526.78" r="2.37"/><path class="cls-2" d="M273.5,527.48a2.37,2.37,0,1,1-2.37-2.37A2.37,2.37,0,0,1,273.5,527.48Z" transform="translate(0 1)"/><circle class="cls-2" cx="274.62" cy="540.01" r="2.37"/><path class="cls-2" d="M266.57,537.48a2.37,2.37,0,1,1-2.37-2.37A2.37,2.37,0,0,1,266.57,537.48Z" transform="translate(0 1)"/><path class="cls-2" d="M256,536.15a2.37,2.37,0,1,1-2.37-2.37A2.37,2.37,0,0,1,256,536.15Z" transform="translate(0 1)"/><path class="cls-2" d="M245.7,535.78a2.37,2.37,0,1,1-2.37-2.37A2.37,2.37,0,0,1,245.7,535.78Z" transform="translate(0 1)"/><circle class="cls-2" cx="234.85" cy="530.27" r="2.37"/><path class="cls-2" d="M227.26,524a2.32,2.32,0,1,1-2.32-2.32A2.32,2.32,0,0,1,227.26,524Z" transform="translate(0 1)"/><path class="cls-2" d="M216.73,531.62a2.36,2.36,0,1,1-2.35-2.35A2.35,2.35,0,0,1,216.73,531.62Z" transform="translate(0 1)"/><path class="cls-2" d="M227.55,536.6a2.38,2.38,0,1,1-2.37-2.37A2.37,2.37,0,0,1,227.55,536.6Z" transform="translate(0 1)"/><path class="cls-2" d="M218.22,544a2.37,2.37,0,1,1-2.37-2.37A2.37,2.37,0,0,1,218.22,544Z" transform="translate(0 1)"/><path class="cls-2" d="M206.55,539.52a2.28,2.28,0,1,1-2.28-2.28A2.28,2.28,0,0,1,206.55,539.52Z" transform="translate(0 1)"/><path class="cls-2" d="M199.32,549.45a2.38,2.38,0,1,1-2.37-2.37A2.37,2.37,0,0,1,199.32,549.45Z" transform="translate(0 1)"/><circle class="cls-2" cx="207.87" cy="553.24" r="2.37"/><path class="cls-2" d="M220.79,556.76a2.37,2.37,0,1,1-2.37-2.37A2.37,2.37,0,0,1,220.79,556.76Z" transform="translate(0 1)"/><path class="cls-2" d="M229,549.11a2.37,2.37,0,1,1-2.37-2.37A2.37,2.37,0,0,1,229,549.11Z" transform="translate(0 1)"/><path class="cls-2" d="M237.56,542.31a2.37,2.37,0,1,1-2.37-2.38A2.37,2.37,0,0,1,237.56,542.31Z" transform="translate(0 1)"/><path class="cls-2" d="M249.18,546.66a2.37,2.37,0,1,1-2.37-2.37A2.37,2.37,0,0,1,249.18,546.66Z" transform="translate(0 1)"/><path class="cls-2" d="M260,547.77a2.37,2.37,0,1,1-2.37-2.37A2.37,2.37,0,0,1,260,547.77Z" transform="translate(0 1)"/><path class="cls-2" d="M271.23,549.33a2.37,2.37,0,1,1-2.37-2.37A2.37,2.37,0,0,1,271.23,549.33Z" transform="translate(0 1)"/><circle class="cls-2" cx="279.51" cy="551.95" r="2.37"/><path class="cls-2" d="M276.29,561.64a2.37,2.37,0,1,1-2.37-2.37A2.37,2.37,0,0,1,276.29,561.64Z" transform="translate(0 1)"/><circle class="cls-2" cx="262.2" cy="559.58" r="2.37"/><path class="cls-2" d="M252.76,558.39a2.37,2.37,0,1,1-2.37-2.37A2.37,2.37,0,0,1,252.76,558.39Z" transform="translate(0 1)"/><path class="cls-2" d="M243.18,564.74a2.37,2.37,0,1,1-2.37-2.37A2.38,2.38,0,0,1,243.18,564.74Z" transform="translate(0 1)"/><circle class="cls-2" cx="238.35" cy="553.69" r="2.37" transform="translate(-364.38 564.17) rotate(-67.61)"/><path class="cls-2" d="M231.92,560.84a2.37,2.37,0,1,1-2.37-2.37A2.37,2.37,0,0,1,231.92,560.84Z" transform="translate(0 1)"/><path class="cls-2" d="M223.66,569a2.37,2.37,0,1,1-2.37-2.37A2.37,2.37,0,0,1,223.66,569Z" transform="translate(0 1)"/><path class="cls-2" d="M234.58,572.58a2.37,2.37,0,1,1-2.37-2.37A2.38,2.38,0,0,1,234.58,572.58Z" transform="translate(0 1)"/><path class="cls-2" d="M226.82,581.17a2.37,2.37,0,1,1-2.37-2.37A2.37,2.37,0,0,1,226.82,581.17Z" transform="translate(0 1)"/><path class="cls-2" d="M218.61,589.42a2.38,2.38,0,1,1-2.37-2.37A2.38,2.38,0,0,1,218.61,589.42Z" transform="translate(0 1)"/><path class="cls-2" d="M209.19,597.13a2.38,2.38,0,1,1-2.37-2.37A2.37,2.37,0,0,1,209.19,597.13Z" transform="translate(0 1)"/><path class="cls-2" d="M197.56,602.74a2.38,2.38,0,1,1-2.37-2.37A2.38,2.38,0,0,1,197.56,602.74Z" transform="translate(0 1)"/><path class="cls-2" d="M185.89,606.22a2.37,2.37,0,1,1-2.37-2.37A2.37,2.37,0,0,1,185.89,606.22Z" transform="translate(0 1)"/><path class="cls-2" d="M173.68,607.86a2.37,2.37,0,1,1-2.37-2.37A2.37,2.37,0,0,1,173.68,607.86Z" transform="translate(0 1)"/><path class="cls-2" d="M178,597a2.37,2.37,0,1,1-2.37-2.37A2.38,2.38,0,0,1,178,597Z" transform="translate(0 1)"/><path class="cls-2" d="M189.25,594.3a2.37,2.37,0,1,1-2.37-2.37A2.37,2.37,0,0,1,189.25,594.3Z" transform="translate(0 1)"/><path class="cls-2" d="M199.6,591.72a2.37,2.37,0,1,1-2.37-2.37A2.37,2.37,0,0,1,199.6,591.72Z" transform="translate(0 1)"/><path class="cls-2" d="M194.65,581.71a2.37,2.37,0,1,1-2.37-2.37A2.37,2.37,0,0,1,194.65,581.71Z" transform="translate(0 1)"/><path class="cls-2" d="M193.38,569.28a2.37,2.37,0,1,1-2.37-2.37A2.37,2.37,0,0,1,193.38,569.28Z" transform="translate(0 1)"/><path class="cls-2" d="M204.05,573.52a2.37,2.37,0,1,1-2.37-2.37A2.37,2.37,0,0,1,204.05,573.52Z" transform="translate(0 1)"/><path class="cls-2" d="M207.58,584.69a2.37,2.37,0,1,1-2.37-2.37A2.37,2.37,0,0,1,207.58,584.69Z" transform="translate(0 1)"/><circle class="cls-2" cx="213.32" cy="577.11" r="2.37" transform="translate(-390.6 695.78) rotate(-80.74)"/><circle class="cls-2" cx="210.29" cy="566.11" r="2.37"/><path class="cls-2" d="M202.16,561.09a2.37,2.37,0,1,1-2.37-2.37A2.37,2.37,0,0,1,202.16,561.09Z" transform="translate(0 1)"/><circle class="cls-2" cx="188.3" cy="559.32" r="2.36"/><path class="cls-2" d="M180.4,565.12a2.37,2.37,0,1,1-2.37-2.37A2.37,2.37,0,0,1,180.4,565.12Z" transform="translate(0 1)"/><path class="cls-2" d="M184.2,575.33a2.37,2.37,0,1,1-2.37-2.38A2.37,2.37,0,0,1,184.2,575.33Z" transform="translate(0 1)"/><path class="cls-2" d="M182.45,585.52a2.38,2.38,0,1,1-2.38-2.37A2.38,2.38,0,0,1,182.45,585.52Z" transform="translate(0 1)"/><path class="cls-2" d="M171.42,587.07a2.37,2.37,0,1,1-2.37-2.37A2.37,2.37,0,0,1,171.42,587.07Z" transform="translate(0 1)"/><path class="cls-2" d="M172,575.91a2.37,2.37,0,1,1-2.37-2.37A2.38,2.38,0,0,1,172,575.91Z" transform="translate(0 1)"/><path class="cls-2" d="M167.69,565.31a2.3,2.3,0,1,1-2.3-2.3A2.3,2.3,0,0,1,167.69,565.31Z" transform="translate(0 1)"/><circle class="cls-2" cx="157.23" cy="573.2" r="2.37"/><path class="cls-2" d="M149,577.15a2.06,2.06,0,1,1-2.06-2.06A2.05,2.05,0,0,1,149,577.15Z" transform="translate(0 1)"/><path class="cls-2" d="M149.49,589a2.37,2.37,0,1,1-2.37-2.38A2.37,2.37,0,0,1,149.49,589Z" transform="translate(0 1)"/><circle class="cls-2" cx="158.06" cy="585.73" r="2.37"/><path class="cls-2" d="M165.68,597.07a2.37,2.37,0,1,1-2.37-2.38A2.38,2.38,0,0,1,165.68,597.07Z" transform="translate(0 1)"/><path class="cls-2" d="M154.28,598.63a2.37,2.37,0,1,1-2.37-2.37A2.37,2.37,0,0,1,154.28,598.63Z" transform="translate(0 1)"/><circle class="cls-2" cx="158.98" cy="608.27" r="2.31" transform="translate(-466.94 668.32) rotate(-80.74)"/><path class="cls-3" d="M373,581.22s-6.9,9.34-17.24,9.49S339,581.22,339,581.22s-6.45-9.63-16.79-9.49S305,581.22,305,581.22s-6.9,9.34-17.24,9.49-16.78-9.49-16.78-9.49-6.45-9.63-16.79-9.49-17.24,9.49-17.24,9.49-6.9,9.34-17.24,9.49-16.78-9.49-16.78-9.49-6.45-9.63-16.79-9.49-17.24,9.49-17.24,9.49-6.9,9.34-17.24,9.49-16.78-9.49-16.78-9.49-6.45-9.63-16.79-9.49-17.24,9.49-17.24,9.49" transform="translate(0 1)"/><polygon class="cls-4" points="1147.48 0 934.68 154.6 940.56 162.69 1163.12 1 1147.48 0"/><polygon class="cls-4" points="1199.92 42.26 908.7 253.85 914.58 261.94 1200 54.83 1199.92 42.26"/><polygon class="cls-4" points="1200 132.06 914.65 339.38 920.53 347.47 1200 144.42 1200 132.06"/><polygon class="cls-4" points="1200 220.81 996.68 368.53 1002.56 376.62 1200 233.17 1200 220.81"/></svg>