<svg viewBox="0 0 357.69 417.41" xmlns="http://www.w3.org/2000/svg"><path d="m128.09 320c-.5 43.93-1 87.86-1 131.79s.32 87.85 1.57 131.75q.94 32.93 2.59 65.82c.26 5.11.33 10.28.89 15.36.59 5.31 1.23 8.58 3.52 13.42a24.49 24.49 0 0 0 9.73 10.11c6.37 3.65 13.66 3.78 20.78 3.85l16.8.15 132.16 1.25 132.15 1.25 16 .15a17.77 17.77 0 0 0 12.37-5.13l2.74-3.54a17.44 17.44 0 0 0 2.39-8.83 616.45 616.45 0 0 0 3.94-74.4c-.09-24.91-1.36-49.79-3.11-74.63s-4-49.83-6.07-74.74-3.94-49.81-5-74.77-1.15-49.82.25-74.68q.26-4.6.59-9.19c.29-4.1-2.13-9.62-5.13-12.38a18.09 18.09 0 0 0 -12.37-5.12q-52.05.33-104.11.71l-104.1.81-58.67.49a18.12 18.12 0 0 0 -12.37 5.13c-3 3-5.32 8-5.13 12.37.21 4.53 1.69 9.22 5.13 12.38a18.11 18.11 0 0 0 12.37 5.12q52.05-.45 104.11-.85t104.1-.77q29.37-.19 58.73-.39l-17.52-17.49a723.65 723.65 0 0 0 -1.17 74.67c.79 24.95 2.53 49.87 4.54 74.76s4.28 49.82 6.15 74.75 3.33 49.73 3.69 74.65a646.67 646.67 0 0 1 -2.85 74.43q-.46 4.57-1 9.15l17.5-17.5-119.94-1.13-119.16-1.13-33.62-.31-16.8-.16c-5.18 0-10.53.28-15.67-.35l4.65.63a14.39 14.39 0 0 1 -3.4-.92l4.18 1.76a11.2 11.2 0 0 1 -1.49-.88l3.54 2.73a9.65 9.65 0 0 1 -1.55-1.58l2.74 3.55a12.4 12.4 0 0 1 -1-1.89l1.77 4.18a18.12 18.12 0 0 1 -1-3.77l.63 4.65c-.69-5.37-.72-10.89-1-16.3q-.42-8.37-.8-16.73-.75-16.74-1.3-33.49-1.06-33.88-1.56-67.77c-.64-44.94-.55-89.89-.19-134.83q.3-38.08.78-76.18a18 18 0 0 0 -5.09-12.36c-3-3-8-5.32-12.37-5.13-9.57.43-17.39 7.69-17.5 17.5z" fill="#f9d977" transform="translate(-127.03 -277.49)"/></svg>