<svg id="letras" xmlns="http://www.w3.org/2000/svg" viewBox="0 0 779.97 402.44"><defs><style>.cls-1{fill:#fafafa;}</style></defs><path class="cls-1" d="M19.75,261.84c.75-.79,1.53-1.52,2.35-2.23,1.22-1.07-1.85,1.32-.06.08.53-.37,1.08-.72,1.63-1.06,1-.58,1.95-1.11,3-1.61.6-.29,1.21-.56,1.81-.84,1-.45-1.15.48-1.06.45a11,11,0,0,0,1.08-.42,98.93,98.93,0,0,1,14.37-4c2.73-.58,5.49-1.08,8.25-1.52,1.53-.25,3.07-.48,4.6-.7,2-.28-1.78.22.19,0l2.5-.31c6.22-.73,12.46-1.23,18.71-1.59,24.3-1.38,48.66-.72,73-2,12.47-.66,25.06-2,37.16-5.17a111.93,111.93,0,0,0,31.23-13.65c18.06-11.39,33.33-27.66,41.19-47.7,2.41-6.16,3.48-12.74,4.19-19.29a98.24,98.24,0,0,0,.08-19.55c-1.36-14.66-5-29.55-12.83-42.2-7.41-12-19-22.14-33.43-24.16-8.25-1.17-17-.67-24.75,2.53a47.38,47.38,0,0,0-21.37,17.64c-9.58,13.94-12.74,31.49-14.9,47.93-2.85,21.67-3.69,43.56-3.89,65.4-.24,25.84.36,51.69-.8,77.51-.27,6.13-.62,12.26-1.16,18.37q-.39,4.42-.9,8.83c-.16,1.36-.33,2.71-.5,4.07-.25,1.93.27-1.89,0,0-.11.79-.22,1.58-.34,2.36a282.43,282.43,0,0,1-7.31,34.64q-2.37,8.52-5.32,16.88-1.47,4.17-3.09,8.3c-.5,1.27-1,2.54-1.53,3.8l-.42,1c.54-1.29.08-.19,0,.06l-.54,1.26a230.76,230.76,0,0,1-14.62,28.24c-2.6,4.23-5.35,8.37-8.28,12.38q-1,1.42-2.1,2.82c-1.09,1.43,1.24-1.57.12-.17l-1.47,1.84c-1.61,2-3.27,3.92-5,5.8a106.87,106.87,0,0,1-10.61,10.24c-.51.43-1,.84-1.54,1.26-1.36,1.12,1.67-1.24.25-.19-1,.72-2,1.44-2.94,2.12a69.55,69.55,0,0,1-6.06,3.7c-1,.55-2.06,1.07-3.12,1.56a4.91,4.91,0,0,1-1.45.64c-.16,0,2.17-.86,1.16-.5l-1,.39a27.92,27.92,0,0,1-3.24.94,11.66,11.66,0,0,0-1.85.35s2.31-.23,1.36-.2c-.34,0-.68.06-1,.07a29.83,29.83,0,0,1-3,0c-2.1-.11,2,.43.51.07-.55-.13-1.09-.22-1.63-.37s-.91-.26-1.35-.41-2-.8-.34-.09.09,0-.29-.19c-.56-.28-1.1-.6-1.64-.93s-.78-.52-1.17-.78a3,3,0,0,1-.57-.42c-.15-.18,1.84,1.58,1.09.82s-1.67-1.49-2.44-2.31c-.34-.36-.65-.73-1-1.1a2.55,2.55,0,0,1-.47-.57c-.09-.18,1.38,1.95.81,1s-1.24-1.78-1.8-2.72-1.08-1.94-1.55-3c0,0-.34-.7-.33-.71s.84,2.09.5,1.18c-.21-.57-.44-1.14-.65-1.73a47.66,47.66,0,0,1-1.85-7.83c-.32-1.9.17,1.93,0,0-.07-.78-.16-1.55-.21-2.33-.1-1.44-.15-2.89-.16-4.33a78.3,78.3,0,0,1,.51-8.66c.21-1.92-.31,1.92,0,0,.11-.67.21-1.33.33-2,.28-1.54.59-3.08,1-4.61.66-2.84,1.46-5.66,2.37-8.43s1.93-5.51,3-8.22c.71-1.75-.73,1.65,0-.08q.39-.92.81-1.83.95-2.12,2-4.2a69.15,69.15,0,0,1,3.48-6.39c.6-.95,1.25-1.86,1.89-2.79,1-1.38-1.43,1.73-.37.47.36-.43.71-.86,1.07-1.27a41.54,41.54,0,0,1,4.12-3.95c.48-.42-2.17,1.53-.71.58.39-.26.76-.53,1.16-.78a23.72,23.72,0,0,1,2.2-1.23c.41-.2,1.81-.8,0-.05s-.21.11.2,0a23.35,23.35,0,0,1,2.3-.69c.6-.14,3.16-.55,1-.26s-.38.05.13,0,.85-.06,1.28-.07c.74,0,1.48,0,2.22,0l1.12.08c.25,0,.5.06.75.07,1.11,0-2.62-.41-1.52-.21a46.84,46.84,0,0,1,4.94,1.09c1.64.47,3.21,1.09,4.81,1.68-3.47-1.29-.38-.14.52.28s1.69.82,2.52,1.26a93.15,93.15,0,0,1,10,6.21q1.26.88,2.49,1.8l1.14.85.57.43c1.06.8-.75-.59-.89-.69a60.61,60.61,0,0,1,4.84,3.93c6.16,5.16,12,10.7,17.72,16.33s11.29,11.08,17,16.61c7.69,7.5,15.58,14.86,24.49,20.91S192,456.39,203.08,456.5c11.83.12,23.38-4,33.42-10.07,9.15-5.53,17.35-12.61,25.16-19.87,3.84-3.57,3.88-10.58,0-14.14a10.2,10.2,0,0,0-14.14,0c-3.79,3.52-7.65,7-11.69,10.22-.48.38-1,.74-1.44,1.13,0,0,1.7-1.28.82-.63l-.73.55c-1.14.85-2.3,1.69-3.48,2.49-2.17,1.5-4.4,2.91-6.69,4.21-1.06.59-2.12,1.16-3.21,1.7-.53.27-1.08.53-1.62.78-.39.18-2.52,1.12-1,.47s-.66.24-1,.38c-.56.21-1.13.41-1.69.6-1.23.41-2.47.78-3.72,1.1s-2.52.59-3.79.81l-.89.14c-1.11.19,1.26-.16,1.17-.16-.69,0-1.41.14-2.1.19q-2,.14-4,.09-.93,0-1.86-.09c-.3,0-.59-.06-.89-.07-1.24-.06,2.28.38,1.06.13a51.32,51.32,0,0,1-6.8-1.73c-.51-.18-1-.37-1.54-.57-.25-.1-.5-.22-.76-.3s2.1.93,1.12.47c-1.18-.56-2.36-1.1-3.52-1.7a71.42,71.42,0,0,1-6.34-3.81c-1-.64-1.92-1.31-2.86-2l-1.4-1-.7-.54c2.23,1.65.9.7.4.3-7.68-6.12-14.57-13.14-21.63-20-11.25-10.87-22.06-22.25-34.44-31.89-6.76-5.26-13.77-10.29-21.66-13.72-7.45-3.23-15.52-5.65-23.74-4.62A36.32,36.32,0,0,0,53.35,368c-7.54,8.9-12.31,20.05-16.06,31-3.95,11.5-6.26,24.09-5.14,36.26,1.06,11.58,4.6,23,13.1,31.39a33.18,33.18,0,0,0,31.21,8.65,53.52,53.52,0,0,0,14.76-6.47A92.94,92.94,0,0,0,104.49,459c15.29-13.33,27-30.9,36.32-48.77a266.64,266.64,0,0,0,24.31-68.08c5.18-24.47,6.88-49.38,7.36-74.33.49-25.85-.19-51.71.57-77.55q.52-18.22,2.28-36.36c.34-3.47.71-6.93,1.15-10.38.06-.46.28-2.12,0-.16s0,.08.05-.39l.42-2.82q.45-2.88,1-5.75c.73-3.89,1.61-7.76,2.7-11.57.54-1.89,1.13-3.78,1.79-5.64.3-.85.61-1.7.94-2.54.16-.41.34-.83.49-1.25.37-1-.59,1.59-.57,1.36a3.06,3.06,0,0,1,.35-.81,57.19,57.19,0,0,1,5.49-9.85c.25-.34.51-.68.75-1-1.85,2.71-.92,1.17-.39.53s1.16-1.38,1.78-2,1.26-1.29,1.92-1.9c.48-.43,1.8-1.17,2-1.74,0-.08-1.93,1.41-1.21.94.18-.11.34-.24.51-.36l1-.7c.81-.53,1.65-1,2.51-1.48.38-.19.75-.38,1.14-.56.19-.1.39-.17.57-.27.72-.38-1.39.6-1.41.58s2.54-.92,2.87-1a45.32,45.32,0,0,1,5.4-1.22c1.57-.28-2.63.3-1.06.14l1.18-.13c.9-.08,1.8-.13,2.69-.15,1.55,0,3.07.06,4.61.18,2,.16-2.48-.41-1.06-.15.35.06.7.11,1,.18.75.13,1.48.3,2.22.48,1.44.37,2.81.9,4.21,1.39.61.21-2.62-1.18-1.14-.47l1.06.5c.65.33,1.3.67,1.93,1,1.27.74,2.44,1.59,3.64,2.43.52.36-2.2-1.79-1-.73l.79.65c.6.52,1.19,1.06,1.77,1.61q1.62,1.58,3.08,3.3c.37.43,1.92,2.41.65.77s-.3-.38,0,0,.56.77.83,1.17a61.46,61.46,0,0,1,4.71,8.08c.35.73.7,1.47,1,2.22.16.35.3.7.46,1a13,13,0,0,0-.64-1.51,7.06,7.06,0,0,0,.29.71c.62,1.55,1.2,3.11,1.73,4.7a92.46,92.46,0,0,1,2.67,9.82c.37,1.68.68,3.36,1,5,.13.78.24,1.56.36,2.34.23,1.56-.34-2.66-.15-1.09l.18,1.56a99.57,99.57,0,0,1,.26,19.68c-.07.78-.15,1.57-.24,2.35a6.51,6.51,0,0,0-.13,1.07,11.56,11.56,0,0,0,.23-1.77c0,.23-.06.47-.1.7-.22,1.49-.49,3-.8,4.44a58.34,58.34,0,0,1-2.32,8.09c-.2.54-1.08,2.66-.23.64s0,0-.22.43c-.33.71-.67,1.41-1,2.11q-1.69,3.39-3.68,6.6c-1.26,2-2.61,4-4,5.95a10.5,10.5,0,0,0-.69.92c-.05.08,1.37-1.73.69-.9-.36.45-.71.9-1.08,1.34-.78,1-1.58,1.9-2.41,2.82a96,96,0,0,1-10.7,10.25c-.44.37-.89.72-1.33,1.08-1.34,1.08,1.89-1.42,0,0-1,.75-2,1.48-3,2.19-2,1.43-4.13,2.8-6.26,4.09s-4.32,2.52-6.53,3.68c-1,.54-2.06,1.06-3.1,1.57l-1.57.75a7.2,7.2,0,0,0-1.05.49c.43-.3,1.88-.75.57-.23a111.91,111.91,0,0,1-16.71,5.21c-2.88.66-5.79,1.22-8.71,1.69l-2.36.37-1,.14c-1.14.17,1-.13,1-.13-1.47.11-3,.37-4.42.52-5.92.62-11.86,1-17.8,1.21-12,.47-24,.65-36,.83-24.93.36-50.22.88-74.62,6.52-10.31,2.39-21.2,6.1-28.64,14-3.58,3.82-4.06,10.42,0,14.15,3.89,3.57,10.31,4.07,14.14,0Z" transform="translate(-2.74 -73.79)"/><path class="cls-1" d="M243.48,269.41c-1.13,10.27-1.91,20.56-2.7,30.86-.76,9.81-1.37,19.68-2.68,29.43l.36-2.66c-1.05,7.55-2.76,15-3.41,22.59a51.58,51.58,0,0,0,.48,12.41,25.76,25.76,0,0,0,5.68,12.13c5.21,6.52,14.25,8.64,22.21,8.35,7.6-.28,15.18-2.15,22.64-3.47,10.76-1.9,21.44-4.23,32.22-5.95,2.32-.37,4.85-2.66,6-4.59a10.24,10.24,0,0,0,1-7.71,10.11,10.11,0,0,0-4.6-6l-2.39-1a10,10,0,0,0-5.31,0c-8.86,1.41-17.64,3.22-26.45,4.88-4.11.78-8.27,1.35-12.37,2.2-2.8.58-5.61,1.14-8.45,1.53l2.65-.36a39.25,39.25,0,0,1-10,.25l2.66.35a19.15,19.15,0,0,1-4.81-1.25l2.39,1a14.21,14.21,0,0,1-3-1.7l2,1.57a13.54,13.54,0,0,1-2.27-2.27l1.57,2a15.8,15.8,0,0,1-1.94-3.36l1,2.39a20.42,20.42,0,0,1-1.26-5l.36,2.66a52,52,0,0,1,.43-13.3l-.36,2.66c.54-4,1.29-7.9,2-11.84.85-5,1.39-10,1.88-15,1.07-11,1.81-22.08,2.71-33.11.51-6.27,1.07-12.54,1.76-18.79.26-2.38-1.3-5.45-2.93-7.07a10,10,0,0,0-14.14,0l-1.56,2a10,10,0,0,0-1.37,5.05Z" transform="translate(-2.74 -73.79)"/><path class="cls-1" d="M260.7,325.06c15.73.29,31.35-1.67,46.93-3.58,2.75-.34,5-.89,7.07-2.93a10,10,0,0,0,0-14.14c-1.81-1.67-4.5-3.25-7.07-2.93-15.58,1.91-31.2,3.87-46.93,3.58-5.24-.09-10.24,4.67-10,10a10.18,10.18,0,0,0,10,10Z" transform="translate(-2.74 -73.79)"/><path class="cls-1" d="M259.75,278.67q5.64-.92,11.29-1.67l-2.66.35c13.37-1.79,26.8-3,40.21-4.52,2.73-.31,5.05-.91,7.07-2.93a10,10,0,0,0,0-14.14c-1.83-1.68-4.49-3.22-7.07-2.93-18.07,2-36.2,3.62-54.15,6.56-2.33.38-4.84,2.65-6,4.59a10.23,10.23,0,0,0-1,7.71,10.06,10.06,0,0,0,4.6,6,11.45,11.45,0,0,0,7.7,1Z" transform="translate(-2.74 -73.79)"/><path class="cls-1" d="M368,216c.6,22.52,1.46,45,1.77,67.56.15,10.36.22,20.72-.27,31.07-.46,9.64-1.11,19.26-1.32,28.91a192.1,192.1,0,0,0,1.62,30.89c1.28,9.21,3.54,18.88,8.19,27a37.16,37.16,0,0,0,16.62,15.46,45.84,45.84,0,0,0,10.8,3.53,68.73,68.73,0,0,0,11.72,1.13c14,.07,27.82-3.52,41.23-7.08l4.24-1.12c5.06-1.33,8.63-7.21,7-12.31a10.19,10.19,0,0,0-12.3-7c-10.32,2.71-20.62,5.6-31.22,7l2.66-.35a71.79,71.79,0,0,1-18.75.34l2.65.35a39.21,39.21,0,0,1-9.58-2.5l2.39,1a29.39,29.39,0,0,1-6.56-3.79l2,1.57a28.62,28.62,0,0,1-4.95-5l1.56,2a33.54,33.54,0,0,1-4-7l1,2.39A84.6,84.6,0,0,1,389,368.67l.35,2.66c-2.46-18.54-.83-37.31.08-55.9,1-20.86.22-41.83-.38-62.7-.35-12.25-.75-24.5-1.08-36.76a10.39,10.39,0,0,0-2.92-7.07A10.2,10.2,0,0,0,378,206c-5.29.24-10.14,4.4-10,10Z" transform="translate(-2.74 -73.79)"/><path class="cls-1" d="M347.25,305.29c9.32.46,18.74-.11,28-.62,11.52-.64,23-1.49,34.48-3a120,120,0,0,0,15.87-2.66,10.32,10.32,0,0,0,6-4.59,10,10,0,0,0-11.29-14.69,93.18,93.18,0,0,1-11.63,2.09l2.66-.35a472.87,472.87,0,0,1-53.84,3.85c-3.42.06-6.84.1-10.26-.07-5.23-.26-10.23,4.79-10,10a10.22,10.22,0,0,0,10,10Z" transform="translate(-2.74 -73.79)"/><path class="cls-1" d="M462.59,264.25c1,23.17,2.11,46.47,6.68,69.27a183.23,183.23,0,0,0,4.63,18.32,10,10,0,0,0,11,7.16c4.63-.62,9-4.84,8.67-9.82-.45-6.85-1.63-13.64-2.55-20.44l.35,2.66c-1-7.44-1.79-15-.82-22.49l-.36,2.66a36.87,36.87,0,0,1,2.38-9.07l-1,2.38A27.4,27.4,0,0,1,495,299l-1.56,2a32.1,32.1,0,0,1,5.41-5.33l-2,1.56a53,53,0,0,1,11.7-6.64l-2.39,1a113.12,113.12,0,0,1,24.38-6.71c2.33-.41,4.83-2.63,6-4.6a10,10,0,0,0-3.59-13.68,11.33,11.33,0,0,0-7.7-1,132.22,132.22,0,0,0-16.56,3.88,77.9,77.9,0,0,0-18.68,8.22c-6,3.82-11.64,8.92-14.87,15.39a51.5,51.5,0,0,0-5,24c.13,8.72,1.7,17.36,2.87,26l-.36-2.66c.39,2.93.75,5.86.94,8.81l19.64-2.66a207,207,0,0,1-7.13-33.41l.36,2.66c-2.29-17.09-3.05-34.32-3.82-51.52a10.51,10.51,0,0,0-2.93-7.08,10,10,0,0,0-17.07,7.08Z" transform="translate(-2.74 -73.79)"/><path class="cls-1" d="M583.23,259.33c1.51-.28,3-.53,4.54-.75l-2.65.36a64.09,64.09,0,0,1,16.66-.22l-2.65-.35A39.47,39.47,0,0,1,609,261l-2.38-1a30.4,30.4,0,0,1,6.26,3.59l-2-1.56a29.22,29.22,0,0,1,5.3,5.3l-1.56-2a35.82,35.82,0,0,1,4.51,7.88l-1-2.39a57.85,57.85,0,0,1,3.67,14.36l-.36-2.66c1.87,14.12.09,28.29-.05,42.45-.19,20.24.64,40.47,1.22,60.7.32,11.37.56,22.74.5,34.11,0,5.23,4.62,10.24,10,10a10.18,10.18,0,0,0,10-10c.09-16.79-.48-33.57-1-50.34-.26-8.47-.5-16.94-.64-25.41s-.32-16.81,0-25.19c.46-11.2,1.41-22.41.27-33.61-1.33-13.11-4.95-26.94-15.18-36a41.32,41.32,0,0,0-20.68-9.82,68.29,68.29,0,0,0-11.77-1,89.53,89.53,0,0,0-11.68,1c-1.52.21-3,.46-4.54.75a10.09,10.09,0,0,0-6,4.59,10,10,0,0,0,3.59,13.69,11.15,11.15,0,0,0,7.7,1Z" transform="translate(-2.74 -73.79)"/><path class="cls-1" d="M618.72,316.6c-7.71-1-15.57-.27-23.19,1.14a95.73,95.73,0,0,0-23.64,7.9,83,83,0,0,0-20.43,13.75,57.1,57.1,0,0,0-13.9,18.91,47.57,47.57,0,0,0-3.74,12.14,44.12,44.12,0,0,0,0,15.77,42.38,42.38,0,0,0,10,21.69c5.12,6,12,9.92,19.23,12.79A68.57,68.57,0,0,0,585,425a89.19,89.19,0,0,0,22.75-2A75.55,75.55,0,0,0,628,415.58c1.27-.69,2.5-1.44,3.7-2.23a10.66,10.66,0,0,0,4.6-6,10.23,10.23,0,0,0-1-7.71,10.12,10.12,0,0,0-6-4.59,10,10,0,0,0-7.7,1,53.64,53.64,0,0,1-8.66,4.61l2.38-1a74.21,74.21,0,0,1-18.81,5l2.65-.35a76.8,76.8,0,0,1-20.15.08l2.66.36a57.09,57.09,0,0,1-14.14-3.74l2.39,1a40.78,40.78,0,0,1-9-5.19l2,1.56a33.68,33.68,0,0,1-5.87-5.82l1.56,2a31.73,31.73,0,0,1-4.05-6.88l1,2.39a36.33,36.33,0,0,1-2.47-9.26l.35,2.66a39.79,39.79,0,0,1,0-10.17l-.36,2.66a39.52,39.52,0,0,1,2.72-9.9l-1,2.38a46,46,0,0,1,6-10.06l-1.56,2a60.71,60.71,0,0,1,10.71-10.54l-2,1.56a80,80,0,0,1,17.45-10.08l-2.39,1a85.56,85.56,0,0,1,21.8-6l-2.66.35a64.53,64.53,0,0,1,16.66-.16c2.35.3,5.48-1.34,7.07-2.93a10,10,0,0,0,0-14.14l-2-1.57a9.94,9.94,0,0,0-5-1.36Z" transform="translate(-2.74 -73.79)"/><path class="cls-1" d="M690,331.52c11.58-15.67,20.4-33.14,28.65-50.73,2.32-4.93,4.59-9.87,6.88-14.81H708.26c4.3,9.06,8.11,18.36,13,27.12s11.45,16.69,18,24.45c3.18,3.75,6.34,7.53,9.35,11.41l-1.56-2c5.06,6.57,9.76,13.5,13,21.14l-1-2.38a50.38,50.38,0,0,1,3.59,12.63l-.36-2.66a39.61,39.61,0,0,1,0,10.32l.36-2.66a37.54,37.54,0,0,1-2.39,8.9l1-2.39a36,36,0,0,1-4.65,7.84l1.56-2a52.53,52.53,0,0,1-9.28,9.09l2-1.56a77.67,77.67,0,0,1-17,9.8l2.39-1a78.94,78.94,0,0,1-20,5.6l2.66-.35a48,48,0,0,1-12.32.23l2.66.35a17,17,0,0,1-4.26-1.13l2.39,1a11.26,11.26,0,0,1-2.07-1.2l2,1.57a8.63,8.63,0,0,1-1.51-1.51l1.57,2a8.25,8.25,0,0,1-.9-1.58l1,2.38a8.4,8.4,0,0,1-.51-2l.35,2.66a11.74,11.74,0,0,1,0-2.84l-.35,2.66a17.61,17.61,0,0,1,1.15-4l-1,2.39a29.58,29.58,0,0,1,3.85-6.47l-1.56,2a44.85,44.85,0,0,1,3.41-3.88c3.69-3.73,4-10.48,0-14.14a10.17,10.17,0,0,0-14.14,0,48.64,48.64,0,0,0-7.2,9.15,28,28,0,0,0-3.76,9.42,21.24,21.24,0,0,0-.44,5.73,19.89,19.89,0,0,0,2.09,7.48c2.09,4.24,6.16,6.77,10.37,8.47,3.6,1.45,7.72,1.69,11.57,1.72a72.84,72.84,0,0,0,11.12-1,80.15,80.15,0,0,0,19-5.47c13.81-5.79,27.56-14.49,35.19-27.83a45.65,45.65,0,0,0,5.82-23.9c-.31-8.77-2.95-17-6.8-24.85-6.77-13.74-17.41-25.21-27.15-36.87-1.27-1.51-2.53-3-3.73-4.59l1.56,2c-9.14-11.95-14.63-25.89-21-39.37-1.47-3.1-5.34-4.95-8.63-4.95s-7.2,1.85-8.64,4.95c-8.16,17.61-16.16,35.38-26.36,51.94-2.87,4.66-5.92,9.21-9.17,13.61-1.45,2-1.63,5.46-1,7.7a10.18,10.18,0,0,0,4.6,6,10.08,10.08,0,0,0,7.7,1l2.39-1a10,10,0,0,0,3.59-3.59Z" transform="translate(-2.74 -73.79)"/></svg>