<svg id="Layer_1" data-name="Layer 1" xmlns="http://www.w3.org/2000/svg" viewBox="0 0 789.67 404.9"><defs><style>.cls-1{fill:#c9aaf7;}</style></defs><path class="cls-1" d="M49,195.29c-13.58,12.25-23.65,29-31,45.59C10.27,258.47,3.42,278.55,5.4,298.09c.73,7.22,3.35,13.43,9.9,17.27,6.39,3.74,13.79,3.37,20.19,0,29.82-15.68,48.09-46.26,67.29-72.63,1.1-1.51,2.22-3,3.34-4.51.55-.73,1.1-1.46,1.66-2.18-1.75,2.25-2,2.54-.64.85,2.12-2.69,4.37-5.27,6.55-7.92,4.83-5.87,9.49-11.89,14.34-17.76a190.76,190.76,0,0,1,16.39-17.72c1.41-1.32,2.89-2.58,4.37-3.83q2.57-2.06-.7.52c.74-.55,1.5-1.08,2.26-1.6a51.94,51.94,0,0,1,9.26-5.05l-15.41,2c-7-2.92-5-2.27-3.5-1.35-5.34-3.32-4.32-3.56-3-2.24.8.77-3.48-5.56-1.7-1.94-3.34-6.77-1.61-4.24-1.14-2,.56,2.66-.74-6.23-.45-3.47.07.68.08,1.36.09,2,0,1.13-.05,2.26-.13,3.39-.41,5.2.84-5.24.14-.89a95.1,95.1,0,0,1-2.1,9.4c-4.13,15.57-10.4,30.61-16.52,45.48-6.47,15.76-13.29,31.39-19.32,47.33-4.24,11.2-9.76,24.66-8.8,36.89.16,2,.52,4,.8,6.06,2,14.49,24.47,19.67,33.43,8.82,26.4-32,47.65-67.51,71-101.67,12-17.58,25-34.43,37.8-51.45l9.57-12.76c-3.65,4.85,2.33-3,3.39-4.49s2.09-2.92,3.12-4.39l3.34-4.71L252,151.2q-2.44,3.15-.4.58c1.21-1.48,2.51-2.87,3.84-4.24.64-.65,1.31-1.27,2-1.87-3.8,3.44-1.08.83.12.09l-29.38-22.59a101.64,101.64,0,0,1-4.8,16.66c.95-2.17,1-2.21,0-.12-.68,1.53-1.44,3-2.2,4.53-1.56,3.08-3.52,5.93-4.93,9.07-5.78,12.93-11.84,25.73-18,38.47-12.31,25.39-25.18,50.5-37.72,75.77-23.9,48.14-53,95.34-66.52,147.79a20.24,20.24,0,0,0,9.19,22.59c7.16,4.19,18.63,3.74,24.24-3.13,37.4-45.87,62.92-99.29,94.22-149.18,16.43-26.18,34.26-51.59,52.75-76.35,2.25-3,4.54-6,6.83-9,.14-.19,3.93-5.11,1.47-1.93l3.48-4.46q7.56-9.63,15.38-19c4.1-4.95,8-10.06,11.86-15.19.62-.81,3.51-4.51.23-.31.88-1.13,1.79-2.24,2.7-3.35,2.13-2.61,4.39-5.11,6.75-7.52,1-1,6.86-5.82,2.11-2.23,1.36-1,7.51-4,1.54-1.52L301.43,125.4c.66-5-.23.68-.36,1.41-.32,1.69-.72,3.36-1.13,5a93.21,93.21,0,0,1-3.11,9.95c-2,5.45,1.69-3.57-.74,1.76-.75,1.64-1.6,3.23-2.45,4.82-2.09,3.92-3.9,7.89-5.72,11.95-6.6,14.69-13.58,29.2-20.63,43.68q-21.21,43.53-42,87.24Q204.11,336,186,382.07c-2.79,7.13-5.48,14.28-8.13,21.46-.5,1.38-1,2.75-1.56,4.1,3.19-7.72.11-.29-.66,1.52-4.08,9.6-8.74,19.46-10.69,29.78-1.09,5.74-1.47,10.61-.08,16.34,1.63,6.72,7.41,12.17,14,14,9.44,2.6,17.08-1.92,22.59-9.19,36.84-48.6,65.87-102.4,98.6-153.73,16.32-25.6,33.66-50.64,51.47-75.23q6.42-8.86,13-17.59c1.1-1.46,2.21-2.9,3.32-4.35-2.55,3.33,1.13-1.44,1.35-1.72q3.93-5,7.95-10,14.31-17.72,29.91-34.33c3.34-3.55,6.73-7,10.17-10.47H389c-1.46-1.19-3.06-4.63-4.13-7.36,1.33,3.39-.49-5.2-.36-3.33a14.7,14.7,0,0,1-.06,2.2c-.22,2.62.91-6.3.5-3.62-.1.63-.23,1.26-.36,1.88a97.08,97.08,0,0,1-5,15.32c-.58,1.49-1.19,3-1.8,4.44-1.34,3.23,2.1-4.93.71-1.68-.35.8-.69,1.6-1,2.39-1.6,3.66-3.27,7.29-5,10.9-3.57,7.62-7.33,15.14-11.15,22.63-12.89,25.26-26.88,49.9-40.56,74.72-6.09,11-11.4,22.54-17,33.85-9.17,18.63-18.14,37.37-26.74,56.27-17.92,39.4-34.28,79.64-46.66,121.15C225.2,500,244.83,512.83,259.83,505c13.52-7.06,22.86-19.67,26.6-34.37-1.07,4.21.75-.66,1.34-1.61q1.51-2.46,3-4.92,3-4.92,6-9.85,6.46-10.67,12.86-21.37c16.43-27.45,32.75-55,50.15-81.81,15.16-23.4,30.71-46.59,46.45-69.6q11.89-17.4,24.38-34.37c2-2.72,4.05-5.42,6.09-8.11.36-.48,3.8-5,1-1.32l3.11-4q6.75-8.61,13.82-17c16.26-19.28,34-37.42,53.61-53.28l-33.43-8.82c.35,1.14,1.14,5.94.51.52.14,1.21-.31,5.92.46.47a22.74,22.74,0,0,1-1.19,4.29c1.6-4.6-.33-.1-.92.84,2.33-3.67-.9.85-1.42,1.4a22.57,22.57,0,0,0-4.66,7.45c-1.8,4-3.67,7.93-5.56,11.87-6.79,14.19-14.12,28.1-21.58,41.95-15,28-30.49,55.66-44.73,84q-21.92,43.68-42,88.24-4.78,10.65-9.46,21.36c-2,4.56-4,9.11-5.89,13.71-.21.5-2.45,5.8-.68,1.65-.94,2.19-1.88,4.37-2.83,6.56-6.42,14.88-13.08,29.84-16.54,45.76-1.92,8.83,1.14,17.87,9.19,22.58,7.1,4.16,18.73,3.8,24.24-3.13,37.49-47.07,64.38-100.85,96.46-151.49,13.63-21.51,28.29-42.4,43.06-63.13q10.91-15.3,22.12-30.38,2.76-3.69,5.55-7.37c1-1.35,2-2.69,3.07-4l1.23-1.6c2.35-3.07-3,3.94-.7.9q5.54-7.16,11.24-14.15a255.71,255.71,0,0,1,19.35-21.73q1.77-1.74,3.65-3.36c4-3.46-4.72,3.17-.2.19,3.07-2,1.86-.75-2,.58,3-1-6,.55-4,.46a20,20,0,0,1-8.85-2.41q-4.59-11.29-9.19-22.59Q530,192,527,199.77c-.87,2.31-1.78,4.61-2.69,6.9-.46,1.15-.92,2.3-1.39,3.45-.13.32-2.49,6-.84,2.08-4.59,10.87-9.57,21.57-14.66,32.21-10.25,21.4-21.14,42.49-31.31,63.93q-32.08,67.71-58.36,137.84c-3.51,9.33,3.83,23.11,14,24.6,8.41,1.24,15.79,1,23.37-3.35,7.9-4.58,12-12.32,15.22-20.46a37.66,37.66,0,0,0,1.23-4c.39-1.42,2.1-4.35.05-1.44q3.28-4.66,6.52-9.36,7-10.2,13.9-20.53C509.8,385,527,358,544.94,331.58c14.87-21.89,30.11-43.67,46.23-64.66-2.92,3.79.42-.51.86-1.07,1-1.27,2-2.53,3-3.8,2-2.52,4.09-5,6.17-7.49q6.69-8,13.87-15.5c4.3-4.52,8.79-8.86,13.42-13,2.26-2,4.58-4,6.93-5.93.69-.56,4.74-3.69.66-.57,1.57-1.19,3.17-2.34,4.78-3.47,1.19-.85,2.4-1.65,3.62-2.46l-27.36-7.17c1.09,2,1.09,1.77,0-.76a18,18,0,0,1,.78,2.69q-.48-4.6-.41-1.25c.06-6.15-1.12,1.64.94-3.21A26.41,26.41,0,0,1,617,206.7c-2.68,4.6,2.6-2.74-1.3,1.69-3.63,4.12-5.17,9-7.19,13.93q-1.35,3.24-.11.3c-.48,1.13-1,2.26-1.45,3.38-1.22,2.82-2.49,5.62-3.76,8.41-2.56,5.61-5.25,11.15-8,16.68-10.45,21.11-22,41.66-33.09,62.43-23.44,43.85-42.56,89.79-59.49,136.52-3,8.34,1.91,18.32,9.19,22.58,9.11,5.34,22.25,2.44,27.36-7.17,29.19-54.95,60.15-109,95.37-160.35,15.8-23,31.94-45.93,48.55-68.37,2-2.68,4-5.35,6-8,3.39-4.45-2.47,3.16,1-1.26,1-1.32,2.06-2.63,3.1-4q6.75-8.5,13.89-16.7a293.35,293.35,0,0,1,28.69-28.92c1.6-1.39,3.22-2.73,4.85-4.07l2.46-2c-3.85,3.06.27-.18.92-.65l-29.38-12c.39,1,.74,2.08,1,3.14,1.52,5-.09-4.2.29.86a25.87,25.87,0,0,1,0,3c.21-5-.07-.54-.44.77q-1.11,3.15.21-.17a41.7,41.7,0,0,1-2.61,4.66c-2.2,3.59-3.5,7.58-5,11.49-1.1,2.86-2.26,5.68-3.43,8.5.82-1.95.77-1.86-.15.3-.73,1.68-1.49,3.36-2.24,5-2.52,5.62-5.19,11.17-7.91,16.69-11.22,22.76-23.83,44.81-35.44,67.38-23.35,45.36-50.17,90-65.3,139-6,19.31,19.6,33.52,33.42,19.46q26-26.42,51.25-53.46c11-11.81,22-23.68,32.41-36.09a147.84,147.84,0,0,0,11.59-15.16c3.35-5.27,6.59-10.56,10.21-15.67,1-1.47,2.11-2.93,3.19-4.38.22-.31,3.84-5.07,1.26-1.72,2.59-3.36,5.26-6.66,7.94-9.94,6.91-8.47,14.11-16.71,21-25.21,3-3.72,6-7.44,9.23-11a71.34,71.34,0,0,1,5.14-5c3.55-3.14-3.56,2.43.24-.09,1.18-.78,5-2.31-.36-.19l-25.32-19.28q0,3.39-.37,6.76c.5-5.07-.87,3-1.23,4.3-.31,1-.65,2.08-1,3.1-1.78,5.15,1.79-3.67-.58,1.32-1.75,3.7-3.83,6.95-5.35,10.81q-1.74,4.43-3.54,8.83c-.49,1.18-1,2.35-1.46,3.52,1.57-3.78-.87,2-1,2.23-2.51,5.83-5.12,11.61-7.77,17.37-10.27,22.39-21.42,44.36-32,66.57-4.71,9.84-2.81,21.52,7.17,27.37,8.81,5.16,22.66,2.65,27.36-7.18,11.17-23.36,22.87-46.47,33.63-70q3.95-8.65,7.68-17.41,2.52-5.89,5-11.8c.48-1.18,1-2.35,1.43-3.53.27-.65,3.11-5.55,1-2a80.1,80.1,0,0,0,11.08-40.2c.16-12-13.1-24.1-25.31-19.29-13.74,5.42-22.85,15.28-31.9,26.52-8.76,10.88-18,21.36-26.68,32.3S694.69,304,687,315.58c-.54.82-1.12,1.61-1.71,2.41-2.89,3.93,3.21-4.06.6-.75-2,2.49-4,4.93-6.07,7.35-21.41,25.2-44.62,49-67.62,72.69q-6.74,6.95-13.51,13.86,16.71,9.74,33.43,19.46c1.77-5.74,3.72-11.41,5.81-17.05,1.06-2.85,2.18-5.68,3.32-8.51l1.39-3.4c-1.63,4,.73-1.67.88-2,5.2-12,11-23.7,16.9-35.33,11.63-22.8,23.71-45.39,35.52-68.1,12-23.06,24.85-45.66,36.13-69.1q4-8.29,7.64-16.76c1.66-3.83,3.26-7.69,4.85-11.55.69-1.7,1.36-3.41,2-5.11l.65-1.71c.75-2.21.85-2.29.32-.23a49.09,49.09,0,0,0,5.59-43.13c-1.81-5.05-4.45-9.17-9.19-12-5.66-3.31-14.63-4.14-20.19,0C678,170.65,646.68,219,614.06,264.87,577.93,315.7,545.85,369,516.1,423.8q-5.81,10.69-11.51,21.46l36.56,15.41c15.19-41.92,28.77-75.85,49.41-115.5,20.2-38.83,42.37-76.52,58.52-117.32l-5.15,8.83c5.8-6.58,11.2-14.06,12.77-22.9a39,39,0,0,0-5-27.55c-5.33-9-18.23-13.22-27.37-7.18-44.74,29.6-74.48,76.37-104.92,119.35-17.84,25.19-34.4,51.3-51.35,77.1-8.73,13.29-17.56,26.53-26.62,39.61-2.56,3.71-6.65,8-7.46,12.56a55.78,55.78,0,0,1-2.2,8.66c1.77-5,.71-1.77,0-.48-2,3.41,3.2-3.51.59-.94l2.61-2c-1.77,1-1,.69,2.39-.9q-3,.74,2.66-.27c-2.06-.05-1.27.12,2.4.49l14,24.6q12.54-33.4,26.28-66.34l.24-.57c.51-1.18,1-2.37,1.52-3.55,1.26-3,2.55-5.92,3.83-8.87q3.86-8.87,7.84-17.65c5-11.07,10.22-22,15.42-33,20.71-43.69,44.28-86.16,59.73-132.14,2.81-8.33-1.72-18.38-9.19-22.58-14.44-8.13-28,1.73-38,11.64-9.72,9.6-18.27,20.44-26.69,31.16-20.6,26.22-40.05,53.33-59,80.75C424.21,316,410.72,336.77,398,358c-12.13,20.33-23.81,40.92-36.1,61.15q-9.17,15.07-19,29.76-4.87,7.26-10,14.37-2.55,3.54-5.17,7c-.31.42-3.83,5-1.1,1.48q-1.59,2.06-3.23,4.09l33.43,19.46a156.43,156.43,0,0,1,6.21-20.74c1.26-3.43,2.65-6.83,4.05-10.21-1.65,4,.66-1.56.82-1.93l2.85-6.62q2.78-6.42,5.46-12.87c-1.69,4.05.82-1.87,1-2.18.77-1.79,1.55-3.57,2.34-5.36q5.06-11.59,10.28-23.13Q410,367.77,432,324.12c14.23-28.32,29.75-55.94,44.76-83.86,7.43-13.84,14.65-27.8,21.4-42q2.4-5.07,4.71-10.19l-1.08,1a34.94,34.94,0,0,0,2.27-2.73,78.4,78.4,0,0,0,5-6.82,41.58,41.58,0,0,0,6.06-25.85,53.32,53.32,0,0,0-1.77-9.7,20.33,20.33,0,0,0-14-14c-7.45-2-13.74.53-19.46,5.15C435.79,170.81,401.6,217.48,369.82,264,335.93,313.7,304,364.41,273.14,416q-10.86,18.12-21.93,36.12c-2.12,3.43-3,7-4.13,10.74-.34,1.17-2.36,5.33-.05.41a32.66,32.66,0,0,1-2,3.45q-1.86,2.63.79-1a30.26,30.26,0,0,1-2.69,2.74c-3.28,3.08,3.71-2.53-.06,0a36.76,36.76,0,0,1-3.46,2L269,493c4.49-15,9.49-29.91,14.9-44.64,2.61-7.1,5.34-14.16,8.13-21.19q2.1-5.28,4.27-10.54l2.17-5.25q1.38-3.27.19-.46c.5-1.17,1-2.33,1.49-3.49,12.36-29,26-57.41,39.88-85.66,12.84-26.06,27.05-51.17,40.86-76.71,11.13-20.59,22.1-41.36,31.48-62.82,3.92-9,8-18.16,10.42-27.7,2.46-9.72,3.21-23.06-5.52-30.21-8.42-6.89-20-8.29-28.29,0-43.65,43.81-79.4,95.17-113.55,146.52-33.74,50.74-62.36,104.73-97.76,154.38q-5.26,7.38-10.75,14.59l36.55,4.78c-.69-2.85.47,6.06.45,2.83,0-1.6.72-4.74-.37,2.1a46.92,46.92,0,0,1,1.43-5.84,146,146,0,0,1,5.15-14.16c.42-1,.85-2.05,1.28-3.08-2.42,5.8-1,2.3-.43,1q1.84-4.31,3.66-8.62c2.13-5.09,3.88-10.33,5.83-15.48q4.06-10.74,8.34-21.38c1.42-3.56,2.87-7.1,4.32-10.64.73-1.77,1.46-3.53,2.2-5.3l1.47-3.53q-1.15,2.76.22-.51c6.24-14.68,12.78-29.24,19.51-43.7,13.61-29.24,27.68-58.24,41.87-87.2,7.1-14.48,14.11-29,20.85-43.64s15.1-29.24,19.24-45.05a140.56,140.56,0,0,0,2.92-17.07c1.62-12.12-14.16-23.84-25.32-19.28-13.35,5.45-22.86,14.81-31.61,26q-3.63,4.67-7.18,9.38l-2.19,2.88c3.63-4.77,1.38-1.78.55-.75-5.12,6.34-10.37,12.58-15.45,19C240,188.11,221,214.52,202.78,241.53c-32.49,48.31-57.69,101.2-91.33,148.74-2.29,3.25-4.66,6.46-7,9.64-3.41,4.53,2.46-3.12-1,1.33-1.39,1.78-2.81,3.53-4.24,5.28L132.57,426a297.22,297.22,0,0,1,11.9-35.75l1.38-3.39a15.06,15.06,0,0,1,.85-2c1.46-3.39,3-6.75,4.52-10.11,2.83-6.18,5.8-12.3,8.81-18.39,12-24.17,24.74-47.93,36.75-72.08,12.27-24.68,24.81-49.23,36.83-74q9.27-19.12,18-38.51c3-6.69,6.92-12.83,9.69-19.7a100.56,100.56,0,0,0,5.43-18.23c1.41-7.15.18-14.13-5.15-19.45-6.22-6.23-16.62-7.86-24.23-3.13-8.72,5.42-14.73,12.86-20.78,21-2.26,3-4.38,6.16-6.57,9.23-.49.69-1,1.38-1.5,2.06q4.07-5.27-1.46,1.88l-6,8C187.79,171,174.23,188.5,161.6,206.62,150,223.23,139.18,240.33,128,257.21q-8.56,13-17.53,25.65-4.23,5.92-8.61,11.73-2.12,2.75-.19.27c-.74,1-1.48,1.91-2.23,2.86-1.87,2.37-3.78,4.71-5.7,7l33.42,8.82c1.18,8.47.53,4.61.57,2.5,0-2,.76-6.43-.39,1.9a64.79,64.79,0,0,1,1.68-7.77c1.75-6.51,4.08-12.86,6.46-19.16,6-16,12.91-31.65,19.41-47.46,6.08-14.81,12.2-29.77,16.32-45.27,4.06-15.33,5.81-31.44-5-44.39-15.68-18.86-41,2.19-53.34,14.36-12.18,12-22.48,26-33.23,39.28-11.39,14-21.25,29.21-32.17,43.59,3.22-4.24-.86,1.06-1.48,1.84-1.54,1.92-3.13,3.81-4.74,5.69-2.84,3.32-5.84,6.49-8.95,9.56-1.35,1.34-2.75,2.62-4.17,3.88-.95.86-7,5.62-2.47,2.17a75.68,75.68,0,0,1-10.41,6.52l30.1,17.27a61.86,61.86,0,0,1-.19-9.43c.07-1.33.83-7.31,0-1,.31-2.23.76-4.43,1.22-6.62a121.29,121.29,0,0,1,3.43-12.31c.61-1.86,1.29-3.7,2-5.53q.53-1.38,1.08-2.76c1.87-4.73-1.75,4,.31-.7a153,153,0,0,1,11.88-21.77c1-1.53,2.07-3,3.14-4.53.52-.72,1.05-1.44,1.59-2.15-3.32,4.43-.61.86.11,0a76.66,76.66,0,0,1,7.41-7.67c8.09-7.3,7.41-20.87,0-28.28-8-8-20.2-7.3-28.29,0Z" transform="translate(-5.05 -105.11)"/></svg>