<svg viewBox="0 0 88.91 51.02" xmlns="http://www.w3.org/2000/svg"><g fill="#dfaace" transform="translate(-253.54 -394.99)"><path d="m254.67 395a10.55 10.55 0 0 0 -1.13.06v5.64a5.29 5.29 0 0 1 1.13-.14 5 5 0 0 1 5 4.95h5.56a10.53 10.53 0 0 0 -10.56-10.51z"/><path d="m296.09 405.5h-5.56a4.95 4.95 0 1 0 -9.9 0h-5.56a10.51 10.51 0 0 1 21 0z"/><path d="m327 405.5h-5.56a4.95 4.95 0 0 0 -9.9 0h-5.54a10.51 10.51 0 0 1 21 0z"/><path d="m290.53 435.5a10.51 10.51 0 1 0 21 0v-30h-5.53v30a4.95 4.95 0 1 1 -9.89 0v-30h-5.56z"/><path d="m259.62 435.5a10.51 10.51 0 0 0 21 0v-30h-5.56v30a4.95 4.95 0 0 1 -9.9 0v-30h-5.56z"/><path d="m321.44 435.5a10.51 10.51 0 1 0 21 0v-3.33h-5.57v3.33a4.95 4.95 0 1 1 -9.89 0v-30h-5.56z"/></g></svg>